
<svg width="193" height="155" viewBox="0 0 93 55" fill="none" xmlns="http://www.w3.org/2000/svg">
    <g clip-path="url(#clip0_118_6464)">
        <path d="M67.2621 19.4062C61.9952 17.407 55.0856 16.2646 47.6971 16.1511C46.9494 12.3064 46.7321 7.09607 46.5001 0C46.2717 7.09607 46.0544 12.3101 45.3031 16.1511C37.9146 16.2646 31.005 17.407 25.7381 19.4062C20.1028 21.5445 17.0016 24.4188 17.0016 27.5018C17.0016 30.5848 20.1028 33.4592 25.7381 35.5938C31.005 37.593 37.9146 38.7354 45.3031 38.8489C46.0507 42.6936 46.2681 47.9039 46.5001 55C46.7285 47.9039 46.9458 42.6899 47.6971 38.8489C55.0856 38.7354 61.9952 37.593 67.2621 35.5938C72.8974 33.4555 75.9986 30.5812 75.9986 27.5018C75.9986 24.4225 72.8974 21.5445 67.2621 19.4098V19.4062ZM67.0596 19.9188C72.4628 21.9692 75.4388 24.6605 75.4388 27.4982C55.8554 26.927 49.9144 26.4327 47.8113 16.7003C55.0892 16.8211 61.8847 17.9525 67.0596 19.9151V19.9188ZM25.9443 19.9188C31.1229 17.9562 37.9146 16.8248 45.1926 16.7039C43.0895 26.4363 37.1485 26.9306 17.5651 27.5018C17.5651 24.6641 20.5411 21.9692 25.9443 19.9224V19.9188ZM25.9443 35.0812C20.5411 33.0308 17.5651 30.3395 17.5651 27.5018C37.1485 28.073 43.0895 28.5673 45.1926 38.2997C37.9146 38.1789 31.1192 37.0475 25.9443 35.0849V35.0812ZM67.0596 35.0812C61.881 37.0438 55.0892 38.1752 47.8113 38.2961C49.9144 28.5637 55.8554 28.0694 75.4388 27.4982C75.4388 30.3359 72.4628 33.0308 67.0596 35.0776V35.0812Z" fill="#fff"/>
    </g>
        <path d="M3.50962 25.0069C3 26.2003 1.67308 27.1399 0 27.4966C1.67308 27.8601 2.99039 28.7997 3.5 30C4.00962 28.8134 5.32692 27.8738 6.98077 27.5103H7C5.32692 27.1399 4.00962 26.1934 3.5 25L3.50962 25.0069Z" fill="#BBDBFA"/>
        <path d="M89.5096 25.0069C89 26.2003 87.6731 27.1399 86 27.4966C87.6731 27.8601 88.9904 28.7997 89.5 30C90.0096 28.8134 91.3269 27.8738 92.9808 27.5103H93C91.3269 27.1399 90.0096 26.1934 89.5 25L89.5096 25.0069Z" fill="#BBDBFA"/>
    <defs>
        <clipPath id="clip0_118_6464">
        <rect width="59" height="55" fill="white" transform="translate(17)"/>
        </clipPath>
    </defs>
</svg>
